<svg xmlns="http://www.w3.org/2000/svg" viewBox="0 0 1280 900" width="1280" height="900" role="img">
  <defs>
    <linearGradient id="g" x1="0" y1="0" x2="1" y2="1">
      <stop offset="0" stop-color="#2D6BFF"/>
      <stop offset="1" stop-color="#1E4FD0"/>
    </linearGradient>
    <linearGradient id="paper" x1="0" y1="0" x2="0" y2="1">
      <stop offset="0" stop-color="#1b1e24"/>
      <stop offset="1" stop-color="#0E0E0E"/>
    </linearGradient>
  </defs>
  <rect width="1280" height="900" fill="#0E0E0E"/>
  <rect x="50" y="50" width="1180" height="800" rx="22" fill="url(#g)" opacity="0.9"/>
  <line x1="360" y1="320" x2="560" y2="240" stroke="#F5F3EE" stroke-opacity="0.5" stroke-width="2"/>
  <line x1="560" y1="240" x2="720" y2="360" stroke="#F5F3EE" stroke-opacity="0.5" stroke-width="2"/>
  <line x1="360" y1="320" x2="540" y2="480" stroke="#F5F3EE" stroke-opacity="0.5" stroke-width="2"/>
  <line x1="720" y1="360" x2="540" y2="480" stroke="#F5F3EE" stroke-opacity="0.5" stroke-width="2"/>
  <line x1="720" y1="360" x2="840" y2="420" stroke="#F5F3EE" stroke-opacity="0.5" stroke-width="2"/>
  <line x1="540" y1="480" x2="840" y2="420" stroke="#F5F3EE" stroke-opacity="0.5" stroke-width="2"/>
  <circle cx="360" cy="320" r="20" fill="#F5F3EE" opacity="0.85"/>
  <circle cx="560" cy="240" r="20" fill="#F5F3EE" opacity="0.85"/>
  <circle cx="720" cy="360" r="20" fill="#F5F3EE" opacity="0.85"/>
  <circle cx="540" cy="480" r="20" fill="#F5F3EE" opacity="0.85"/>
  <circle cx="840" cy="420" r="20" fill="#F5F3EE" opacity="0.85"/>
  <text x="100" y="750" font-family="monospace" font-size="24" fill="#F5F3EE" opacity="0.7">Neo4j · LLM retrieval</text>
  <text x="100" y="810" font-family="sans-serif" font-weight="700" font-size="40" fill="#F5F3EE">WCAG Graph RAG</text>
</svg>
