<svg xmlns="http://www.w3.org/2000/svg" viewBox="0 0 1280 800" width="1280" height="800" role="img">
  <defs>
    <linearGradient id="g" x1="0" y1="0" x2="1" y2="1">
      <stop offset="0" stop-color="#2D6BFF"/>
      <stop offset="1" stop-color="#1E4FD0"/>
    </linearGradient>
    <linearGradient id="paper" x1="0" y1="0" x2="0" y2="1">
      <stop offset="0" stop-color="#1b1e24"/>
      <stop offset="1" stop-color="#0E0E0E"/>
    </linearGradient>
  </defs>
  <rect width="1280" height="800" fill="#0E0E0E"/>
  <rect x="60" y="60" width="1160" height="680" rx="24" fill="url(#g)" opacity="0.92"/>
  <rect x="120" y="130" width="1040" height="520" rx="16" fill="#0E0E0E" opacity="0.55"/>
  <circle cx="190" cy="200" r="22" fill="#2D6BFF"/>
  <path d="M178 200 l9 9 l16 -18" fill="none" stroke="#F5F3EE" stroke-width="5" stroke-linecap="round" stroke-linejoin="round"/>
  <rect x="240" y="186" width="620" height="28" rx="14" fill="#F5F3EE" opacity="0.85"/>
  <text x="930" y="208" font-family="monospace" font-size="22" fill="#F5F3EE" opacity="0.7">P1</text>
  <circle cx="190" cy="300" r="22" fill="#2D6BFF"/>
  <path d="M178 300 l9 9 l16 -18" fill="none" stroke="#F5F3EE" stroke-width="5" stroke-linecap="round" stroke-linejoin="round"/>
  <rect x="240" y="286" width="620" height="28" rx="14" fill="#F5F3EE" opacity="0.85"/>
  <text x="930" y="308" font-family="monospace" font-size="22" fill="#F5F3EE" opacity="0.7">P2</text>
  <circle cx="190" cy="400" r="22" fill="#2D6BFF"/>
  <path d="M178 400 l9 9 l16 -18" fill="none" stroke="#F5F3EE" stroke-width="5" stroke-linecap="round" stroke-linejoin="round"/>
  <rect x="240" y="386" width="620" height="28" rx="14" fill="#F5F3EE" opacity="0.85"/>
  <text x="930" y="408" font-family="monospace" font-size="22" fill="#F5F3EE" opacity="0.7">P3</text>
  <circle cx="190" cy="500" r="22" fill="#2D6BFF"/>
  <path d="M178 500 l9 9 l16 -18" fill="none" stroke="#F5F3EE" stroke-width="5" stroke-linecap="round" stroke-linejoin="round"/>
  <rect x="240" y="486" width="620" height="28" rx="14" fill="#F5F3EE" opacity="0.85"/>
  <text x="930" y="508" font-family="monospace" font-size="22" fill="#F5F3EE" opacity="0.7">P1</text>
  <text x="120" y="710" font-family="sans-serif" font-weight="700" font-size="44" fill="#F5F3EE">Albertsons · WCAG 2.2 AA</text>
</svg>
