<svg xmlns="http://www.w3.org/2000/svg" viewBox="0 0 1280 800" width="1280" height="800" role="img" aria-labelledby="gt2 gd2">
  <title id="gt2">Power-system load-flow network</title>
  <desc id="gd2">A transmission bus network with generation and load buses and power-flow directions, modelled in PSS E to study stability with added solar.</desc>
  <defs>
    <radialGradient id="gbg2" cx="44%" cy="30%" r="95%"><stop offset="0%" stop-color="#1B2A4A"/><stop offset="100%" stop-color="#070C1A"/></radialGradient>
    <pattern id="gg2" width="40" height="40" patternUnits="userSpaceOnUse"><path d="M40 0H0V40" fill="none" stroke="#152743" stroke-width="1" opacity="0.6"/></pattern>
    <style>
      .eye{font-family:'JetBrains Mono','SF Mono',ui-monospace,monospace;font-size:18px;letter-spacing:3px;fill:#7E93B6}
      .tag{font-family:'JetBrains Mono','SF Mono',ui-monospace,monospace;font-size:16px;letter-spacing:2px;fill:#FACC15}
      .h{font-family:'Inter','Helvetica Neue',Arial,sans-serif;font-weight:700;fill:#EAF2FF}
      .sub{font-family:'Inter','Helvetica Neue',Arial,sans-serif;font-weight:500;font-size:22px;fill:#9FB3D6}
      .lab{font-family:'JetBrains Mono','SF Mono',ui-monospace,monospace;font-size:15px;fill:#7E93B6}
    </style>
  </defs>
  <rect width="1280" height="800" fill="url(#gbg2)"/><rect width="1280" height="800" fill="url(#gg2)"/>
  <text x="80" y="92" class="eye">02 · LOAD-FLOW · PSS®E</text>
  <text x="1200" y="92" class="tag" text-anchor="end">jazxii</text>
  <line x1="260" y1="250" x2="430" y2="200" stroke="#2B5180" stroke-width="2.5"/><line x1="260" y1="250" x2="430" y2="360" stroke="#2B5180" stroke-width="2.5"/><line x1="430" y1="200" x2="600" y2="270" stroke="#2B5180" stroke-width="2.5"/><line x1="430" y1="360" x2="600" y2="270" stroke="#2B5180" stroke-width="2.5"/><line x1="600" y1="270" x2="760" y2="210" stroke="#2B5180" stroke-width="2.5"/><line x1="600" y1="270" x2="760" y2="370" stroke="#2B5180" stroke-width="2.5"/><line x1="760" y1="210" x2="930" y2="290" stroke="#2B5180" stroke-width="2.5"/><line x1="760" y1="370" x2="930" y2="290" stroke="#2B5180" stroke-width="2.5"/><line x1="930" y1="290" x2="1080" y2="240" stroke="#2B5180" stroke-width="2.5"/><line x1="930" y1="290" x2="1080" y2="400" stroke="#2B5180" stroke-width="2.5"/><line x1="600" y1="450" x2="430" y2="360" stroke="#2B5180" stroke-width="2.5"/><line x1="600" y1="450" x2="760" y2="370" stroke="#2B5180" stroke-width="2.5"/>
  <g transform="translate(345,225) rotate(-16)"><path d="M-5 -4 L4 0 L-5 4" fill="none" stroke="#7DD3FC" stroke-width="2" stroke-linecap="round" stroke-linejoin="round"/></g><g transform="translate(345,305) rotate(33)"><path d="M-5 -4 L4 0 L-5 4" fill="none" stroke="#7DD3FC" stroke-width="2" stroke-linecap="round" stroke-linejoin="round"/></g><g transform="translate(515,235) rotate(22)"><path d="M-5 -4 L4 0 L-5 4" fill="none" stroke="#7DD3FC" stroke-width="2" stroke-linecap="round" stroke-linejoin="round"/></g><g transform="translate(515,315) rotate(-28)"><path d="M-5 -4 L4 0 L-5 4" fill="none" stroke="#7DD3FC" stroke-width="2" stroke-linecap="round" stroke-linejoin="round"/></g><g transform="translate(680,240) rotate(-21)"><path d="M-5 -4 L4 0 L-5 4" fill="none" stroke="#7DD3FC" stroke-width="2" stroke-linecap="round" stroke-linejoin="round"/></g><g transform="translate(680,320) rotate(32)"><path d="M-5 -4 L4 0 L-5 4" fill="none" stroke="#7DD3FC" stroke-width="2" stroke-linecap="round" stroke-linejoin="round"/></g><g transform="translate(845,250) rotate(25)"><path d="M-5 -4 L4 0 L-5 4" fill="none" stroke="#7DD3FC" stroke-width="2" stroke-linecap="round" stroke-linejoin="round"/></g><g transform="translate(845,330) rotate(-25)"><path d="M-5 -4 L4 0 L-5 4" fill="none" stroke="#7DD3FC" stroke-width="2" stroke-linecap="round" stroke-linejoin="round"/></g><g transform="translate(1005,265) rotate(-18)"><path d="M-5 -4 L4 0 L-5 4" fill="none" stroke="#7DD3FC" stroke-width="2" stroke-linecap="round" stroke-linejoin="round"/></g><g transform="translate(1005,345) rotate(36)"><path d="M-5 -4 L4 0 L-5 4" fill="none" stroke="#7DD3FC" stroke-width="2" stroke-linecap="round" stroke-linejoin="round"/></g><g transform="translate(515,405) rotate(-152)"><path d="M-5 -4 L4 0 L-5 4" fill="none" stroke="#7DD3FC" stroke-width="2" stroke-linecap="round" stroke-linejoin="round"/></g><g transform="translate(680,410) rotate(-27)"><path d="M-5 -4 L4 0 L-5 4" fill="none" stroke="#7DD3FC" stroke-width="2" stroke-linecap="round" stroke-linejoin="round"/></g>
  <circle cx="260" cy="250" r="16" fill="#FACC15"/><circle cx="260" cy="250" r="22" fill="none" stroke="#FACC15" stroke-width="1.5" opacity="0.4"/><text x="260" y="226" font-family="JetBrains Mono,monospace" font-size="13" fill="#9FB3D6" text-anchor="middle">B1</text><circle cx="430" cy="200" r="13" fill="#38BDF8"/><text x="430" y="179" font-family="JetBrains Mono,monospace" font-size="13" fill="#9FB3D6" text-anchor="middle">B2</text><circle cx="430" cy="360" r="13" fill="#38BDF8"/><text x="430" y="339" font-family="JetBrains Mono,monospace" font-size="13" fill="#9FB3D6" text-anchor="middle">B3</text><circle cx="600" cy="270" r="13" fill="#22D3EE"/><text x="600" y="249" font-family="JetBrains Mono,monospace" font-size="13" fill="#9FB3D6" text-anchor="middle">B4</text><circle cx="760" cy="210" r="13" fill="#38BDF8"/><text x="760" y="189" font-family="JetBrains Mono,monospace" font-size="13" fill="#9FB3D6" text-anchor="middle">B5</text><circle cx="760" cy="370" r="13" fill="#38BDF8"/><text x="760" y="349" font-family="JetBrains Mono,monospace" font-size="13" fill="#9FB3D6" text-anchor="middle">B6</text><circle cx="930" cy="290" r="13" fill="#22D3EE"/><text x="930" y="269" font-family="JetBrains Mono,monospace" font-size="13" fill="#9FB3D6" text-anchor="middle">B7</text><circle cx="1080" cy="240" r="13" fill="#38BDF8"/><text x="1080" y="219" font-family="JetBrains Mono,monospace" font-size="13" fill="#9FB3D6" text-anchor="middle">B8</text><circle cx="1080" cy="400" r="13" fill="#38BDF8"/><text x="1080" y="379" font-family="JetBrains Mono,monospace" font-size="13" fill="#9FB3D6" text-anchor="middle">B9</text><circle cx="600" cy="450" r="16" fill="#FACC15"/><circle cx="600" cy="450" r="22" fill="none" stroke="#FACC15" stroke-width="1.5" opacity="0.4"/><text x="600" y="426" font-family="JetBrains Mono,monospace" font-size="13" fill="#9FB3D6" text-anchor="middle">B10</text>
  <!-- legend -->
  <g transform="translate(120,560)">
    <circle cx="10" cy="0" r="10" fill="#FACC15"/><text x="30" y="5" class="lab" fill="#9FB3D6">generation (solar)</text>
    <circle cx="240" cy="0" r="9" fill="#38BDF8"/><text x="258" y="5" class="lab" fill="#9FB3D6">load bus</text>
    <g transform="translate(380,-4)"><path d="M-5 -4 L4 0 L-5 4" fill="none" stroke="#7DD3FC" stroke-width="2"/></g><text x="396" y="5" class="lab" fill="#9FB3D6">power flow</text>
  </g>
  <text x="120" y="700" class="h" font-size="34">Renewable Energy Grid Integration</text>
  <text x="120" y="734" class="sub">Grid Controller of India · PSS®E + pyPSSE simulation</text>
</svg>
