<svg xmlns="http://www.w3.org/2000/svg" viewBox="0 0 1280 800" width="1280" height="800" role="img">
  <defs>
    <linearGradient id="g" x1="0" y1="0" x2="1" y2="1">
      <stop offset="0" stop-color="#2D6BFF"/>
      <stop offset="1" stop-color="#1E4FD0"/>
    </linearGradient>
    <linearGradient id="paper" x1="0" y1="0" x2="0" y2="1">
      <stop offset="0" stop-color="#1b1e24"/>
      <stop offset="1" stop-color="#0E0E0E"/>
    </linearGradient>
  </defs>
  <rect width="1280" height="800" fill="#0E0E0E"/>
  <rect x="60" y="60" width="1160" height="680" rx="24" fill="url(#paper)"/>
  <rect x="60" y="60" width="1160" height="680" rx="24" fill="none" stroke="#2D6BFF" stroke-opacity="0.25"/>
  <line x1="300" y1="260" x2="520" y2="180" stroke="#2D6BFF" stroke-opacity="0.4" stroke-width="2"/>
  <line x1="520" y1="180" x2="740" y2="300" stroke="#2D6BFF" stroke-opacity="0.4" stroke-width="2"/>
  <line x1="300" y1="260" x2="560" y2="440" stroke="#2D6BFF" stroke-opacity="0.4" stroke-width="2"/>
  <line x1="740" y1="300" x2="560" y2="440" stroke="#2D6BFF" stroke-opacity="0.4" stroke-width="2"/>
  <line x1="560" y1="440" x2="820" y2="520" stroke="#2D6BFF" stroke-opacity="0.4" stroke-width="2"/>
  <line x1="300" y1="260" x2="360" y2="520" stroke="#2D6BFF" stroke-opacity="0.4" stroke-width="2"/>
  <line x1="740" y1="300" x2="980" y2="360" stroke="#2D6BFF" stroke-opacity="0.4" stroke-width="2"/>
  <line x1="560" y1="440" x2="640" y2="620" stroke="#2D6BFF" stroke-opacity="0.4" stroke-width="2"/>
  <line x1="820" y1="520" x2="640" y2="620" stroke="#2D6BFF" stroke-opacity="0.4" stroke-width="2"/>
  <line x1="360" y1="520" x2="640" y2="620" stroke="#2D6BFF" stroke-opacity="0.4" stroke-width="2"/>
  <line x1="980" y1="360" x2="820" y2="520" stroke="#2D6BFF" stroke-opacity="0.4" stroke-width="2"/>
  <circle cx="300" cy="260" r="26" fill="url(#g)"/>
  <circle cx="300" cy="260" r="26" fill="none" stroke="#F5F3EE" stroke-opacity="0.5"/>
  <circle cx="520" cy="180" r="16" fill="url(#g)"/>
  <circle cx="520" cy="180" r="16" fill="none" stroke="#F5F3EE" stroke-opacity="0.5"/>
  <circle cx="740" cy="300" r="26" fill="url(#g)"/>
  <circle cx="740" cy="300" r="26" fill="none" stroke="#F5F3EE" stroke-opacity="0.5"/>
  <circle cx="560" cy="440" r="26" fill="url(#g)"/>
  <circle cx="560" cy="440" r="26" fill="none" stroke="#F5F3EE" stroke-opacity="0.5"/>
  <circle cx="820" cy="520" r="16" fill="url(#g)"/>
  <circle cx="820" cy="520" r="16" fill="none" stroke="#F5F3EE" stroke-opacity="0.5"/>
  <circle cx="360" cy="520" r="16" fill="url(#g)"/>
  <circle cx="360" cy="520" r="16" fill="none" stroke="#F5F3EE" stroke-opacity="0.5"/>
  <circle cx="980" cy="360" r="16" fill="url(#g)"/>
  <circle cx="980" cy="360" r="16" fill="none" stroke="#F5F3EE" stroke-opacity="0.5"/>
  <circle cx="640" cy="620" r="16" fill="url(#g)"/>
  <circle cx="640" cy="620" r="16" fill="none" stroke="#F5F3EE" stroke-opacity="0.5"/>
  <text x="120" y="150" font-family="monospace" font-size="26" fill="#A7A39B">WCAG knowledge graph · Graph RAG</text>
  <text x="120" y="700" font-family="sans-serif" font-weight="700" font-size="46" fill="#F5F3EE">Accessibility AI Platform</text>
</svg>
