<svg xmlns="http://www.w3.org/2000/svg" viewBox="0 0 1280 800" width="1280" height="800" role="img">
  <defs>
    <linearGradient id="g" x1="0" y1="0" x2="1" y2="1">
      <stop offset="0" stop-color="#2D6BFF"/>
      <stop offset="1" stop-color="#1E4FD0"/>
    </linearGradient>
    <linearGradient id="paper" x1="0" y1="0" x2="0" y2="1">
      <stop offset="0" stop-color="#1b1e24"/>
      <stop offset="1" stop-color="#0E0E0E"/>
    </linearGradient>
  </defs>
  <rect width="1280" height="800" fill="#0E0E0E"/>
  <rect x="60" y="60" width="1160" height="680" rx="24" fill="url(#paper)"/>
  <g transform="rotate(-6 585 400)">
    <rect x="470" y="170" width="230" height="460" rx="34" fill="#14161A" stroke="#2D6BFF" stroke-opacity="0.5" stroke-width="2"/>
    <rect x="488" y="210" width="194" height="300" rx="10" fill="url(#g)" opacity="0.85"/>
    <rect x="510" y="540" width="150" height="14" rx="7" fill="#F5F3EE" opacity="0.7"/>
    <rect x="510" y="568" width="110" height="14" rx="7" fill="#F5F3EE" opacity="0.4"/>
  </g>
  <g transform="rotate(6 835 400)">
    <rect x="720" y="170" width="230" height="460" rx="34" fill="#14161A" stroke="#2D6BFF" stroke-opacity="0.5" stroke-width="2"/>
    <rect x="738" y="210" width="194" height="300" rx="10" fill="url(#g)" opacity="0.85"/>
    <rect x="760" y="540" width="150" height="14" rx="7" fill="#F5F3EE" opacity="0.7"/>
    <rect x="760" y="568" width="110" height="14" rx="7" fill="#F5F3EE" opacity="0.4"/>
  </g>
  <text x="120" y="150" font-family="monospace" font-size="26" fill="#A7A39B">2,400+ registrations · 75+ countries</text>
  <text x="120" y="710" font-family="sans-serif" font-weight="700" font-size="46" fill="#F5F3EE">ENIGMA 8.0 — IEEE-VIT</text>
</svg>
