<svg xmlns="http://www.w3.org/2000/svg" viewBox="0 0 1280 800" width="1280" height="800" role="img" aria-labelledby="pt3 pd3">
  <title id="pt3">GAAD Vision Hunt assistive-technology kiosk</title>
  <desc id="pd3">An interactive kiosk for Global Accessibility Awareness Day demonstrating assistive technologies such as screen readers, magnification, captions and high contrast.</desc>
  <defs>
    <radialGradient id="pbg3" cx="50%" cy="30%" r="90%">
      <stop offset="0%" stop-color="#0C2129"/><stop offset="100%" stop-color="#06100F"/>
    </radialGradient>
    <pattern id="pg3" width="40" height="40" patternUnits="userSpaceOnUse">
      <path d="M40 0H0V40" fill="none" stroke="#143036" stroke-width="1" opacity="0.5"/>
    </pattern>
    <linearGradient id="scr" x1="0" y1="0" x2="0" y2="1"><stop offset="0%" stop-color="#103A33"/><stop offset="100%" stop-color="#0B2A26"/></linearGradient>
    <style>
      .eye{font-family:'JetBrains Mono','SF Mono',ui-monospace,monospace;font-size:18px;letter-spacing:3px;fill:#5E9389}
      .tag{font-family:'JetBrains Mono','SF Mono',ui-monospace,monospace;font-size:16px;letter-spacing:2px;fill:#34D399}
      .h{font-family:'Inter','Helvetica Neue',Arial,sans-serif;font-weight:700;fill:#E6FBF4}
      .sub{font-family:'Inter','Helvetica Neue',Arial,sans-serif;font-weight:500;font-size:22px;fill:#8FBDB4}
      .scr{font-family:'JetBrains Mono','SF Mono',ui-monospace,monospace;font-size:15px;letter-spacing:2px;fill:#5E9389}
      .at{font-family:'Inter','Helvetica Neue',Arial,sans-serif;font-weight:500;font-size:18px;fill:#C7EFE5}
    </style>
  </defs>
  <rect width="1280" height="800" fill="url(#pbg3)"/><rect width="1280" height="800" fill="url(#pg3)"/>
  <text x="80" y="92" class="eye">03 · GAAD · VISION HUNT</text>
  <text x="1200" y="92" class="tag" text-anchor="end">jazxii</text>

  <!-- kiosk stand -->
  <ellipse cx="640" cy="612" rx="150" ry="22" fill="#0E2329" stroke="#1C3A40"/>
  <rect x="626" y="476" width="28" height="130" rx="6" fill="#123036"/>

  <!-- screen -->
  <rect x="430" y="146" width="420" height="340" rx="26" fill="#0E2329" stroke="#1C3A40" stroke-width="2"/>
  <rect x="450" y="166" width="380" height="300" rx="16" fill="url(#scr)"/>
  <text x="474" y="206" class="scr">GLOBAL ACCESSIBILITY AWARENESS DAY</text>
  <text x="474" y="258" class="h" font-size="44">Vision Hunt</text>
  <g transform="translate(778,244) scale(0.52)">
    <path d="M-46 0 C -26 -28 26 -28 46 0 C 26 28 -26 28 -46 0 Z" fill="none" stroke="#34D399" stroke-width="5"/>
    <circle r="13" fill="#34D399"/><circle r="5" fill="#0B2A26"/>
  </g>

  <!-- demo rows -->
  <g>
    <circle cx="486" cy="318" r="11" fill="#34D399"/><path d="M481 318l3 3 7 -8" fill="none" stroke="#0B2A26" stroke-width="2.5" stroke-linecap="round" stroke-linejoin="round"/>
    <text x="510" y="324" class="at">Find the labelled control</text>
    <circle cx="486" cy="356" r="11" fill="#34D399"/><path d="M481 356l3 3 7 -8" fill="none" stroke="#0B2A26" stroke-width="2.5" stroke-linecap="round" stroke-linejoin="round"/>
    <text x="510" y="362" class="at">Navigate by keyboard</text>
    <circle cx="486" cy="394" r="11" fill="none" stroke="#5E9389" stroke-width="2"/>
    <text x="510" y="400" class="at" fill="#8FBDB4">Hear the announcement</text>
  </g>
  <rect x="618" y="424" width="180" height="40" rx="20" fill="#34D399"/><text x="708" y="450" class="h" font-size="20" fill="#06100F" text-anchor="middle">Start hunt</text>

  <!-- floating assistive-tech chips -->
  <g>
    <rect x="120" y="220" width="240" height="58" rx="29" fill="#0E2329" stroke="#22D3EE"/>
    <circle cx="158" cy="249" r="16" fill="#22D3EE"/><path d="M151 249h14M158 242v14" stroke="#06100F" stroke-width="2.5" stroke-linecap="round"/>
    <text x="186" y="256" class="at">Screen reader</text>
    <rect x="150" y="300" width="210" height="58" rx="29" fill="#0E2329" stroke="#1C3A40"/>
    <circle cx="186" cy="329" r="13" fill="none" stroke="#34D399" stroke-width="3"/><line x1="196" y1="339" x2="206" y2="349" stroke="#34D399" stroke-width="3" stroke-linecap="round"/>
    <text x="220" y="336" class="at">Magnifier</text>
  </g>
  <g>
    <rect x="920" y="220" width="220" height="58" rx="29" fill="#0E2329" stroke="#1C3A40"/>
    <rect x="952" y="237" width="32" height="22" rx="5" fill="none" stroke="#22D3EE" stroke-width="2.5"/><path d="M958 248h8M970 248h6" stroke="#22D3EE" stroke-width="2.5" stroke-linecap="round"/>
    <text x="1000" y="256" class="at">Captions</text>
    <rect x="920" y="300" width="240" height="58" rx="29" fill="#0E2329" stroke="#1C3A40"/>
    <circle cx="956" cy="329" r="15" fill="none" stroke="#34D399" stroke-width="2.5"/><path d="M956 314a15 15 0 0 1 0 30z" fill="#34D399"/>
    <text x="990" y="336" class="at">High contrast</text>
  </g>

  <text x="160" y="700" class="h" font-size="34">Program Analyst Trainee</text>
  <text x="160" y="734" class="sub">Cognizant · shipped the GAAD “Vision Hunt” kiosk</text>
</svg>
