<svg xmlns="http://www.w3.org/2000/svg" viewBox="0 0 1280 800" width="1280" height="800" role="img" aria-labelledby="ht3 hd3">
  <title id="ht3">High-volume content production</title>
  <desc id="hd3">A wall of 250 static and short-form video content pieces produced for the campaign on a tight timeline.</desc>
  <defs>
    <radialGradient id="hbg3" cx="50%" cy="26%" r="95%"><stop offset="0%" stop-color="#2A0E28"/><stop offset="100%" stop-color="#120713"/></radialGradient>
    <pattern id="hg3" width="40" height="40" patternUnits="userSpaceOnUse"><path d="M40 0H0V40" fill="none" stroke="#33152F" stroke-width="1" opacity="0.5"/></pattern>
    <linearGradient id="warm3" x1="0" y1="0" x2="1" y2="1"><stop offset="0%" stop-color="#FF4D6D"/><stop offset="50%" stop-color="#FB5607"/><stop offset="100%" stop-color="#FFB703"/></linearGradient>
    <style>
      .eye{font-family:'JetBrains Mono','SF Mono',ui-monospace,monospace;font-size:18px;letter-spacing:3px;fill:#C77FA8}
      .tag{font-family:'JetBrains Mono','SF Mono',ui-monospace,monospace;font-size:16px;letter-spacing:2px;fill:#FF4D6D}
      .h{font-family:'Inter','Helvetica Neue',Arial,sans-serif;font-weight:800;fill:#FFF1F4}
      .sub{font-family:'Inter','Helvetica Neue',Arial,sans-serif;font-weight:500;font-size:22px;fill:#E0A9C0}
      .leg{font-family:'Inter','Helvetica Neue',Arial,sans-serif;font-weight:500;font-size:18px;fill:#E0A9C0}
    </style>
  </defs>
  <rect width="1280" height="800" fill="url(#hbg3)"/><rect width="1280" height="800" fill="url(#hg3)"/>
  <text x="80" y="92" class="eye">03 · CONTENT VOLUME</text>
  <text x="1200" y="92" class="tag" text-anchor="end">jazxii</text>
  <g transform="translate(170,168)"><rect width="92" height="92" rx="16" fill="#FF4D6D" opacity="0.78"/><circle cx="46.0" cy="46.0" r="20" fill="#120713" opacity="0.32"/><path d="M39.0 35.0l18 11 -18 11z" fill="#FFF1F4"/></g>
  <g transform="translate(276,168)"><rect width="92" height="92" rx="16" fill="#7B2FF7" opacity="0.92"/><path d="M22 70l18 -22 14 14 12 -16 14 24z" fill="#120713" opacity="0.30"/><circle cx="34" cy="34" r="9" fill="#FFF1F4" opacity="0.85"/></g>
  <g transform="translate(382,168)"><rect width="92" height="92" rx="16" fill="#9D4EDD" opacity="0.92"/><circle cx="46.0" cy="46.0" r="20" fill="#120713" opacity="0.32"/><path d="M39.0 35.0l18 11 -18 11z" fill="#FFF1F4"/></g>
  <g transform="translate(488,168)"><rect width="92" height="92" rx="16" fill="#FB5607" opacity="0.78"/><path d="M22 70l18 -22 14 14 12 -16 14 24z" fill="#120713" opacity="0.30"/><circle cx="34" cy="34" r="9" fill="#FFF1F4" opacity="0.85"/></g>
  <g transform="translate(594,168)"><rect width="92" height="92" rx="16" fill="#C9184A" opacity="0.92"/><path d="M22 70l18 -22 14 14 12 -16 14 24z" fill="#120713" opacity="0.30"/><circle cx="34" cy="34" r="9" fill="#FFF1F4" opacity="0.85"/></g>
  <g transform="translate(700,168)"><rect width="92" height="92" rx="16" fill="#E63946" opacity="0.92"/><circle cx="46.0" cy="46.0" r="20" fill="#120713" opacity="0.32"/><path d="M39.0 35.0l18 11 -18 11z" fill="#FFF1F4"/></g>
  <g transform="translate(806,168)"><rect width="92" height="92" rx="16" fill="#FFB703" opacity="0.78"/><path d="M22 70l18 -22 14 14 12 -16 14 24z" fill="#120713" opacity="0.30"/><circle cx="34" cy="34" r="9" fill="#FFF1F4" opacity="0.85"/></g>
  <g transform="translate(912,168)"><rect width="92" height="92" rx="16" fill="#FB8500" opacity="0.92"/><circle cx="46.0" cy="46.0" r="20" fill="#120713" opacity="0.32"/><path d="M39.0 35.0l18 11 -18 11z" fill="#FFF1F4"/></g>
  <g transform="translate(1018,168)"><rect width="92" height="92" rx="16" fill="#FF4D6D" opacity="0.92"/><path d="M22 70l18 -22 14 14 12 -16 14 24z" fill="#120713" opacity="0.30"/><circle cx="34" cy="34" r="9" fill="#FFF1F4" opacity="0.85"/></g>
  <g transform="translate(170,274)"><rect width="92" height="92" rx="16" fill="#C9184A" opacity="0.78"/><path d="M22 70l18 -22 14 14 12 -16 14 24z" fill="#120713" opacity="0.30"/><circle cx="34" cy="34" r="9" fill="#FFF1F4" opacity="0.85"/></g>
  <g transform="translate(276,274)"><rect width="92" height="92" rx="16" fill="#E63946" opacity="0.92"/><circle cx="46.0" cy="46.0" r="20" fill="#120713" opacity="0.32"/><path d="M39.0 35.0l18 11 -18 11z" fill="#FFF1F4"/></g>
  <g transform="translate(382,274)"><rect width="92" height="92" rx="16" fill="#FFB703" opacity="0.92"/><path d="M22 70l18 -22 14 14 12 -16 14 24z" fill="#120713" opacity="0.30"/><circle cx="34" cy="34" r="9" fill="#FFF1F4" opacity="0.85"/></g>
  <g transform="translate(488,274)"><rect width="92" height="92" rx="16" fill="#FB8500" opacity="0.78"/><circle cx="46.0" cy="46.0" r="20" fill="#120713" opacity="0.32"/><path d="M39.0 35.0l18 11 -18 11z" fill="#FFF1F4"/></g>
  <g transform="translate(594,274)"><rect width="92" height="92" rx="16" fill="#FF4D6D" opacity="0.92"/><path d="M22 70l18 -22 14 14 12 -16 14 24z" fill="#120713" opacity="0.30"/><circle cx="34" cy="34" r="9" fill="#FFF1F4" opacity="0.85"/></g>
  <g transform="translate(700,274)"><rect width="92" height="92" rx="16" fill="#7B2FF7" opacity="0.92"/><path d="M22 70l18 -22 14 14 12 -16 14 24z" fill="#120713" opacity="0.30"/><circle cx="34" cy="34" r="9" fill="#FFF1F4" opacity="0.85"/></g>
  <g transform="translate(806,274)"><rect width="92" height="92" rx="16" fill="#9D4EDD" opacity="0.78"/><circle cx="46.0" cy="46.0" r="20" fill="#120713" opacity="0.32"/><path d="M39.0 35.0l18 11 -18 11z" fill="#FFF1F4"/></g>
  <g transform="translate(912,274)"><rect width="92" height="92" rx="16" fill="#FB5607" opacity="0.92"/><path d="M22 70l18 -22 14 14 12 -16 14 24z" fill="#120713" opacity="0.30"/><circle cx="34" cy="34" r="9" fill="#FFF1F4" opacity="0.85"/></g>
  <g transform="translate(1018,274)"><rect width="92" height="92" rx="16" fill="#C9184A" opacity="0.92"/><circle cx="46.0" cy="46.0" r="20" fill="#120713" opacity="0.32"/><path d="M39.0 35.0l18 11 -18 11z" fill="#FFF1F4"/></g>
  <g transform="translate(170,380)"><rect width="92" height="92" rx="16" fill="#FF4D6D" opacity="0.78"/><path d="M22 70l18 -22 14 14 12 -16 14 24z" fill="#120713" opacity="0.30"/><circle cx="34" cy="34" r="9" fill="#FFF1F4" opacity="0.85"/></g>
  <g transform="translate(276,380)"><rect width="92" height="92" rx="16" fill="#7B2FF7" opacity="0.92"/><path d="M22 70l18 -22 14 14 12 -16 14 24z" fill="#120713" opacity="0.30"/><circle cx="34" cy="34" r="9" fill="#FFF1F4" opacity="0.85"/></g>
  <g transform="translate(382,380)"><rect width="92" height="92" rx="16" fill="#9D4EDD" opacity="0.92"/><circle cx="46.0" cy="46.0" r="20" fill="#120713" opacity="0.32"/><path d="M39.0 35.0l18 11 -18 11z" fill="#FFF1F4"/></g>
  <g transform="translate(488,380)"><rect width="92" height="92" rx="16" fill="#FB5607" opacity="0.78"/><path d="M22 70l18 -22 14 14 12 -16 14 24z" fill="#120713" opacity="0.30"/><circle cx="34" cy="34" r="9" fill="#FFF1F4" opacity="0.85"/></g>
  <g transform="translate(594,380)"><rect width="92" height="92" rx="16" fill="#C9184A" opacity="0.92"/><circle cx="46.0" cy="46.0" r="20" fill="#120713" opacity="0.32"/><path d="M39.0 35.0l18 11 -18 11z" fill="#FFF1F4"/></g>
  <g transform="translate(700,380)"><rect width="92" height="92" rx="16" fill="#E63946" opacity="0.92"/><path d="M22 70l18 -22 14 14 12 -16 14 24z" fill="#120713" opacity="0.30"/><circle cx="34" cy="34" r="9" fill="#FFF1F4" opacity="0.85"/></g>
  <g transform="translate(806,380)"><rect width="92" height="92" rx="16" fill="#FFB703" opacity="0.78"/><path d="M22 70l18 -22 14 14 12 -16 14 24z" fill="#120713" opacity="0.30"/><circle cx="34" cy="34" r="9" fill="#FFF1F4" opacity="0.85"/></g>
  <g transform="translate(912,380)"><rect width="92" height="92" rx="16" fill="#FB8500" opacity="0.92"/><circle cx="46.0" cy="46.0" r="20" fill="#120713" opacity="0.32"/><path d="M39.0 35.0l18 11 -18 11z" fill="#FFF1F4"/></g>
  <g transform="translate(1018,380)"><rect width="92" height="92" rx="16" fill="#FF4D6D" opacity="0.92"/><path d="M22 70l18 -22 14 14 12 -16 14 24z" fill="#120713" opacity="0.30"/><circle cx="34" cy="34" r="9" fill="#FFF1F4" opacity="0.85"/></g>
  <g transform="translate(170,486)"><rect width="92" height="92" rx="16" fill="#C9184A" opacity="0.78"/><circle cx="46.0" cy="46.0" r="20" fill="#120713" opacity="0.32"/><path d="M39.0 35.0l18 11 -18 11z" fill="#FFF1F4"/></g>
  <g transform="translate(276,486)"><rect width="92" height="92" rx="16" fill="#E63946" opacity="0.92"/><path d="M22 70l18 -22 14 14 12 -16 14 24z" fill="#120713" opacity="0.30"/><circle cx="34" cy="34" r="9" fill="#FFF1F4" opacity="0.85"/></g>
  <g transform="translate(382,486)"><rect width="92" height="92" rx="16" fill="#FFB703" opacity="0.92"/><path d="M22 70l18 -22 14 14 12 -16 14 24z" fill="#120713" opacity="0.30"/><circle cx="34" cy="34" r="9" fill="#FFF1F4" opacity="0.85"/></g>
  <g transform="translate(488,486)"><rect width="92" height="92" rx="16" fill="#FB8500" opacity="0.78"/><circle cx="46.0" cy="46.0" r="20" fill="#120713" opacity="0.32"/><path d="M39.0 35.0l18 11 -18 11z" fill="#FFF1F4"/></g>
  <g transform="translate(594,486)"><rect width="92" height="92" rx="16" fill="#FF4D6D" opacity="0.92"/><path d="M22 70l18 -22 14 14 12 -16 14 24z" fill="#120713" opacity="0.30"/><circle cx="34" cy="34" r="9" fill="#FFF1F4" opacity="0.85"/></g>
  <g transform="translate(700,486)"><rect width="92" height="92" rx="16" fill="#7B2FF7" opacity="0.92"/><circle cx="46.0" cy="46.0" r="20" fill="#120713" opacity="0.32"/><path d="M39.0 35.0l18 11 -18 11z" fill="#FFF1F4"/></g>
  <g transform="translate(806,486)"><rect width="92" height="92" rx="16" fill="#9D4EDD" opacity="0.78"/><path d="M22 70l18 -22 14 14 12 -16 14 24z" fill="#120713" opacity="0.30"/><circle cx="34" cy="34" r="9" fill="#FFF1F4" opacity="0.85"/></g>
  <g transform="translate(912,486)"><rect width="92" height="92" rx="16" fill="#FB5607" opacity="0.92"/><path d="M22 70l18 -22 14 14 12 -16 14 24z" fill="#120713" opacity="0.30"/><circle cx="34" cy="34" r="9" fill="#FFF1F4" opacity="0.85"/></g>
  <g transform="translate(1018,486)"><rect width="92" height="92" rx="16" fill="#C9184A" opacity="0.92"/><circle cx="46.0" cy="46.0" r="20" fill="#120713" opacity="0.32"/><path d="M39.0 35.0l18 11 -18 11z" fill="#FFF1F4"/></g>
  <!-- count chip -->
  <g transform="translate(170,596)">
    <rect width="270" height="58" rx="29" fill="#1E0C20" stroke="#FB5607"/>
    <text x="22" y="40" class="h" font-size="30" fill="url(#warm3)">×250</text>
    <text x="120" y="38" class="leg">pieces shipped</text>
  </g>
  <g transform="translate(470,596)">
    <circle cx="14" cy="14" r="10" fill="#FF4D6D"/><text x="34" y="20" class="leg">reels</text>
    <circle cx="120" cy="14" r="10" fill="#FFB703"/><text x="140" y="20" class="leg">static</text>
  </g>
  <text x="170" y="702" class="h" font-size="34" fill="url(#warm3)">House of Alt — Social Media Campaign</text>
  <text x="170" y="736" class="sub">Media team · 250 platform-ready pieces, Mar — Apr 2024</text>
</svg>
